<svg width="2068" height="202" viewBox="0 0 2068 202" fill="none" xmlns="http://www.w3.org/2000/svg">
<path d="M1280 201.622H0C0 139.439 57.162 58.1222 105.5 58.1222C149.5 58.1222 167.913 87.5775 191.5 58.1222C215.087 28.6669 236 1.32606 293.5 1.32606C343.541 1.32606 356.512 58.1222 396.5 58.1222C447.5 58.1222 423.5 1.32606 511.057 1.32606C576.252 1.32606 581.191 58.1222 645.5 58.1222C716.5 58.1222 696.442 13.3448 769 1.32606C851.984 -12.4198 882.997 85.8677 909.5 58.1222C941.5 24.6222 1016.5 36.5 1052 76.2444C1087.5 115.989 1068.74 36.5 1145 36.5C1206.5 36.5 1270.57 130.929 1280 201.622Z" fill="#D3EDFF"/>
<path d="M1645 201.622H365C365 139.439 422.162 58.1222 470.5 58.1222C514.5 58.1222 532.913 87.5775 556.5 58.1222C580.087 28.6669 601 1.32606 658.5 1.32606C708.541 1.32606 721.512 58.1222 761.5 58.1222C812.5 58.1222 788.5 1.32606 876.057 1.32606C941.252 1.32606 946.191 58.1222 1010.5 58.1222C1081.5 58.1222 1061.44 13.3448 1134 1.32606C1216.98 -12.4198 1248 85.8677 1274.5 58.1222C1306.5 24.6222 1381.5 36.5 1417 76.2444C1452.5 115.989 1433.74 36.5 1510 36.5C1571.5 36.5 1635.57 130.929 1645 201.622Z" fill="#D3EDFF"/>
<path d="M2068 201.622H788C788 139.439 845.162 58.1222 893.5 58.1222C937.5 58.1222 955.913 87.5775 979.5 58.1222C1003.09 28.6669 1024 1.32606 1081.5 1.32606C1131.54 1.32606 1144.51 58.1222 1184.5 58.1222C1235.5 58.1222 1211.5 1.32606 1299.06 1.32606C1364.25 1.32606 1369.19 58.1222 1433.5 58.1222C1504.5 58.1222 1484.44 13.3448 1557 1.32606C1639.98 -12.4198 1671 85.8677 1697.5 58.1222C1729.5 24.6222 1804.5 36.5 1840 76.2444C1875.5 115.989 1856.74 36.5 1933 36.5C1994.5 36.5 2058.57 130.929 2068 201.622Z" fill="#D3EDFF"/>
</svg>
