<svg width="2313" height="166" viewBox="0 0 2313 166" fill="none" xmlns="http://www.w3.org/2000/svg">
<path d="M1280 165.5H0C9.12114 136.167 23.8723 77.5001 106.413 77.5001C219.921 77.5001 248.804 21.5 356.738 4.5C464.671 -12.5 578.179 26.5001 658.749 77.5001C706.888 107.972 777.324 40.0001 970.895 26.5001C1125.75 15.7001 1241.49 114.667 1280 165.5Z" fill="#88FFEA"/>
<path d="M1554 165.04H274C283.121 135.707 297.872 77.0401 380.413 77.0401C493.921 77.0401 522.804 21.0401 630.738 4.04007C738.671 -12.9599 852.179 26.0402 932.749 77.0401C980.888 107.512 1051.32 39.5401 1244.89 26.0401C1399.75 15.2401 1515.49 114.207 1554 165.04Z" fill="#88FFEA"/>
<path d="M2313 165.04H1033C1042.12 135.707 1056.87 77.0401 1139.41 77.0401C1252.92 77.0401 1281.8 21.0401 1389.74 4.04007C1497.67 -12.9599 1611.18 26.0402 1691.75 77.0401C1739.89 107.512 1810.32 39.5401 2003.89 26.0401C2158.75 15.2401 2274.49 114.207 2313 165.04Z" fill="#88FFEA"/>
</svg>
