<svg width="1750" height="230" viewBox="0 0 1750 230" fill="none" xmlns="http://www.w3.org/2000/svg">
<path d="M1280 230H0C0 167.817 7.07625 82.7234 50.3195 61.1229C85.7003 43.4497 99.0664 90.5782 122.654 61.1229C146.241 31.6676 205.995 -29.2068 270.467 61.1229C299.538 101.853 338.084 76.8324 360.098 43.4497C382.113 10.067 457.592 -7.60618 511.057 29.7039C564.521 67.014 577.101 100.397 606.978 43.4497C636.855 -13.4972 726.487 -15.4609 770.516 43.4497C814.545 102.36 879.469 71.4062 905.749 43.4497C948.206 -1.71511 985.946 6.13964 1034.69 61.1229C1099.3 133.993 1100.74 17.9218 1176.22 17.9218C1236.6 17.9218 1270.57 159.307 1280 230Z" fill="#D3EDFF"/>
<path d="M1436 230H156C156 167.817 163.076 82.7234 206.319 61.1229C241.7 43.4497 255.066 90.5782 278.654 61.1229C302.241 31.6676 361.995 -29.2068 426.467 61.1229C455.538 101.853 494.084 76.8324 516.098 43.4497C538.113 10.067 613.592 -7.60618 667.057 29.7039C720.521 67.014 733.101 100.397 762.978 43.4497C792.855 -13.4972 882.487 -15.4609 926.516 43.4497C970.545 102.36 1035.47 71.4062 1061.75 43.4497C1104.21 -1.71511 1141.95 6.13964 1190.69 61.1229C1255.3 133.993 1256.74 17.9218 1332.22 17.9218C1392.6 17.9218 1426.57 159.307 1436 230Z" fill="#BDE3FF"/>
<path d="M1750 230H470C470 167.817 477.076 82.7234 520.319 61.1229C555.7 43.4497 569.066 90.5782 592.654 61.1229C616.241 31.6676 675.995 -29.2068 740.467 61.1229C769.538 101.853 808.084 76.8324 830.098 43.4497C852.113 10.067 927.592 -7.60618 981.057 29.7039C1034.52 67.014 1047.1 100.397 1076.98 43.4497C1106.86 -13.4972 1196.49 -15.4609 1240.52 43.4497C1284.55 102.36 1349.47 71.4062 1375.75 43.4497C1418.21 -1.71511 1455.95 6.13964 1504.69 61.1229C1569.3 133.993 1570.74 17.9218 1646.22 17.9218C1706.6 17.9218 1740.57 159.307 1750 230Z" fill="#D3EDFF"/>
</svg>
