<svg width="1280" height="230" viewBox="0 0 1280 230" fill="none" xmlns="http://www.w3.org/2000/svg">
<path d="M1280 230H0C0 167.817 7.07625 82.7234 50.3195 61.1229C85.7003 43.4497 99.0664 90.5782 122.654 61.1229C146.241 31.6676 205.995 -29.2068 270.467 61.1229C299.538 101.853 338.084 76.8324 360.098 43.4497C382.113 10.067 457.592 -7.60618 511.057 29.7039C564.521 67.014 577.101 100.397 606.978 43.4497C636.855 -13.4972 726.487 -15.4609 770.516 43.4497C814.545 102.36 879.469 71.4062 905.749 43.4497C948.206 -1.71511 985.946 6.13964 1034.69 61.1229C1099.3 133.993 1100.74 17.9218 1176.22 17.9218C1236.6 17.9218 1270.57 159.307 1280 230Z" fill="#D3EDFF"/>
</svg>
