<svg width="1946" height="230" viewBox="0 0 1946 230" fill="none" xmlns="http://www.w3.org/2000/svg">
<path d="M1280 230H0C0 167.817 7.07625 82.7234 50.3195 61.1229C85.7003 43.4497 99.0664 90.5782 122.654 61.1229C146.241 31.6676 205.995 -29.2068 270.467 61.1229C299.538 101.853 338.084 76.8324 360.098 43.4497C382.113 10.067 457.592 -7.60618 511.057 29.7039C564.521 67.014 577.101 100.397 606.978 43.4497C636.855 -13.4972 726.487 -15.4609 770.516 43.4497C814.545 102.36 879.469 71.4062 905.749 43.4497C948.206 -1.71511 985.946 6.13964 1034.69 61.1229C1099.3 133.993 1100.74 17.9218 1176.22 17.9218C1236.6 17.9218 1270.57 159.307 1280 230Z" fill="#D3EDFF"/>
<path d="M1613 230H333C333 167.817 340.076 82.7234 383.319 61.1229C418.7 43.4497 432.066 90.5782 455.654 61.1229C479.241 31.6676 538.995 -29.2068 603.467 61.1229C632.538 101.853 671.084 76.8324 693.098 43.4497C715.113 10.067 790.592 -7.60618 844.057 29.7039C897.521 67.014 910.101 100.397 939.978 43.4497C969.855 -13.4972 1059.49 -15.4609 1103.52 43.4497C1147.55 102.36 1212.47 71.4062 1238.75 43.4497C1281.21 -1.71511 1318.95 6.13964 1367.69 61.1229C1432.3 133.993 1433.74 17.9218 1509.22 17.9218C1569.6 17.9218 1603.57 159.307 1613 230Z" fill="#D3EDFF"/>
<path d="M1946 230H666C666 167.817 673.076 82.7234 716.319 61.1229C751.7 43.4497 765.066 90.5782 788.654 61.1229C812.241 31.6676 871.995 -29.2068 936.467 61.1229C965.538 101.853 1004.08 76.8324 1026.1 43.4497C1048.11 10.067 1123.59 -7.60618 1177.06 29.7039C1230.52 67.014 1243.1 100.397 1272.98 43.4497C1302.86 -13.4972 1392.49 -15.4609 1436.52 43.4497C1480.55 102.36 1545.47 71.4062 1571.75 43.4497C1614.21 -1.71511 1651.95 6.13964 1700.69 61.1229C1765.3 133.993 1766.74 17.9218 1842.22 17.9218C1902.6 17.9218 1936.57 159.307 1946 230Z" fill="#D3EDFF"/>
</svg>
