<svg width="104" height="103" viewBox="0 0 104 103" fill="none" xmlns="http://www.w3.org/2000/svg">
<path d="M52.3326 100.411C27.4841 100.411 0.67627 84.8246 0.67627 50.6246C0.67627 16.4246 27.4841 0.838623 52.3326 0.838623C66.1373 0.838623 78.8732 5.38081 88.3138 13.6636C98.556 22.748 103.989 35.573 103.989 50.6246C103.989 65.6762 98.556 78.4121 88.3138 87.4965C78.8732 95.7793 66.0482 100.411 52.3326 100.411Z" fill="url(#paint0_radial_15_985)"/>
<path d="M52.3326 100.411C27.4841 100.411 0.67627 84.8246 0.67627 50.6246C0.67627 16.4246 27.4841 0.838623 52.3326 0.838623C66.1373 0.838623 78.8732 5.38081 88.3138 13.6636C98.556 22.748 103.989 35.573 103.989 50.6246C103.989 65.6762 98.556 78.4121 88.3138 87.4965C78.8732 95.7793 66.0482 100.411 52.3326 100.411Z" fill="url(#paint1_linear_15_985)"/>
<path d="M94.9848 21.0293C99.7318 28.6887 102.208 37.8087 102.208 47.9529C102.208 63.0045 96.7749 75.7404 86.5327 84.8248C77.0921 93.1076 64.2671 97.7389 50.5515 97.7389C34.4668 97.7389 17.5983 91.1928 7.64111 77.3079C17.2242 93.0364 35.2505 100.411 52.3327 100.411C66.0483 100.411 78.8734 95.7795 88.314 87.4967C98.5562 78.4123 103.989 65.6764 103.989 50.6248C103.989 39.2782 100.899 29.1963 94.9848 21.0293Z" fill="#EB8F00"/>
<path opacity="0.66" d="M1.45996 61.4993C2.35059 59.1748 6.28715 59.1392 9.1995 60.5463C14.8372 63.2806 14.1692 69.2656 16.9925 70.459C19.8158 71.6524 28.7309 64.3404 41.262 63.1826C42.6692 63.049 50.9788 62.007 51.7981 65.4982C52.1188 66.8787 49.7675 67.1459 49.7675 67.1459C44.6731 69.034 39.4897 70.9578 34.9297 73.9414C29.7551 77.3168 25.2308 82.0906 19.219 83.4978C16.8767 84.0411 14.2315 83.9609 12.3256 82.5092C9.95653 80.7279 9.43106 77.4593 8.56715 74.6182C7.57856 71.3674 5.94871 68.3393 3.7934 65.712" fill="url(#paint2_linear_15_985)"/>
<path d="M1.3532 61.4904C-0.267738 63.4587 3.17898 68.6866 3.79352 71.3496C5.27195 77.7799 3.79352 79.3652 3.67773 85.0831C3.57977 91.3709 5.45899 96.6612 10.2506 100.037C14.7571 103.234 19.7179 103.599 26.6648 101.551C33.6117 99.5023 38.3053 98.5137 38.6615 95.0937C38.8574 93.6776 38.1093 92.2882 36.809 91.6826C37.5037 91.3531 38.0559 90.792 38.3676 90.0884C40.0242 86.134 36.7199 85.2968 36.7199 85.2968C37.1742 84.7535 37.5571 84.1568 37.8599 83.5156C38.8485 81.5473 38.6882 78.8754 35.8382 78.0026C34.529 77.6018 34.1728 77.8156 34.1728 77.8156C35.5265 76.4262 37.1474 75.3129 38.9376 74.5648C43.7292 72.5074 49.4114 71.2606 50.8275 70.0582C52.8848 68.277 53.0095 64.848 49.3757 63.8238C44.1567 62.292 34.5557 65.8545 28.7132 69.5684C22.8707 73.2823 17.5092 75.2862 15.7279 74.6093C13.9466 73.9324 12.8423 72.8281 12.1654 70.1562C10.9096 65.1865 9.93883 63.2627 7.81024 61.4013C6.0468 59.8873 2.60008 59.9763 1.3532 61.4904Z" fill="url(#paint3_radial_15_985)"/>
<path d="M30.3162 80.7992C30.3162 80.7992 29.007 79.9085 34.235 75.7315C37.7975 72.8726 39.8548 72.356 44.1209 71.2784C52.7422 69.1676 52.1989 66.4512 52.1989 66.4512C52.662 70.4501 48.7076 71.3407 45.8131 72.2491C45.5103 72.3382 45.2253 72.454 44.9225 72.5252C35.0098 75.0546 31.5453 81.5918 30.3162 80.7992Z" fill="url(#paint4_linear_15_985)"/>
<path d="M38.4389 90.7117C39.2138 89.4292 39.4275 87.8706 39.0178 86.4278C38.7328 85.5817 38.1896 84.8425 37.4503 84.3348C37.5572 84.1923 37.6641 84.0587 37.7621 83.8984C38.5547 82.6604 38.6705 81.1019 38.0738 79.757C37.3969 78.6972 36.2925 77.9936 35.0546 77.8333C35.9006 78.2429 36.533 79 36.7824 79.9084C36.9249 81.0039 36.7646 82.1261 36.3371 83.1414C35.7671 84.5308 34.4935 85.5015 33.0061 85.6975C30.8508 86.125 31.5099 87.0156 31.5099 87.0156C31.6969 87.7281 34.2441 87.069 36.1767 85.6262C36.72 85.9112 37.1297 86.4011 37.3256 86.98C37.5305 87.8795 37.4058 88.8325 36.9783 89.6519C36.3816 90.9611 35.2238 91.9408 33.8344 92.3237C31.9196 92.8492 32.445 93.5528 32.445 93.5528C32.445 93.5528 32.5341 95.0669 36.4706 92.5731C36.9338 93.4637 37.5483 95.4498 36.3192 96.7323C32.1511 101.123 19.8694 102.815 19.8694 102.815C26.1038 102.815 34.6716 100.411 37.3256 98.2108C38.3588 97.4003 38.9644 96.1712 38.9733 94.862C39.0891 93.6419 38.6349 92.4306 37.7531 91.5756C38.0025 91.3084 38.2341 91.0234 38.4389 90.7117Z" fill="url(#paint5_linear_15_985)"/>
<path d="M64.1511 58.1147C63.8661 58.0613 63.5989 57.9455 63.3763 57.7584C59.3595 54.5344 54.568 52.4325 49.4825 51.6488C44.397 50.767 39.178 51.248 34.3419 53.0381C34.0747 53.145 33.7897 53.1806 33.5047 53.1361C32.8812 53.0292 32.3736 52.5661 32.2044 51.9516C32.0351 51.3459 32.24 50.7047 32.7209 50.3039C42.1616 42.4664 56.1622 43.7667 63.9997 53.2073C64.6409 53.9822 65.2288 54.8016 65.7631 55.6477C66.1016 56.1731 66.1016 56.85 65.7631 57.3755C65.4158 57.9188 64.7834 58.2038 64.1511 58.1147Z" fill="#422B0D"/>
<path d="M67.6245 22.3118C71.3562 22.3118 74.7495 25.4646 74.7495 30.7015C74.7495 35.9383 71.3562 39.0822 67.6245 39.0822C63.8928 39.0822 60.4995 35.9294 60.4995 30.7015C60.4995 25.4735 63.8928 22.3118 67.6245 22.3118Z" fill="#422B0D"/>
<path d="M36.7822 14.198C33.0505 14.198 29.6572 17.3508 29.6572 22.5788C29.6572 27.8068 33.0505 30.9685 36.7822 30.9685C40.5229 30.9685 43.9072 27.8157 43.9072 22.5788C43.9072 17.3419 40.5229 14.198 36.7822 14.198Z" fill="#422B0D"/>
<path d="M31.0735 4.07168C30.6727 3.41262 30.6192 2.59324 30.931 1.88965C31.2694 1.18606 31.9374 0.705118 32.7122 0.607149C37.5661 -0.149883 42.518 0.999024 46.5436 3.8045C48.0488 4.83762 49.3847 6.0845 50.5158 7.5184C50.5871 7.60747 50.6494 7.70543 50.7118 7.81231C51.3174 8.75637 51.1125 10.0032 50.2397 10.7068C49.3046 11.4817 47.933 11.455 47.0335 10.6356L47.4075 10.03L46.9533 10.5643C43.0524 7.30465 38.1718 5.44325 33.0952 5.29184C32.2491 5.29184 31.4653 4.84653 31.0378 4.11621L31.0735 4.07168Z" fill="#422B0D"/>
<path d="M78.5171 20.005C79.1761 19.6399 79.6214 18.9719 79.7105 18.2238C79.7639 17.449 79.4344 16.7008 78.8199 16.2288C74.9635 13.1561 70.065 11.6866 65.1577 12.1497C63.3408 12.3011 61.5595 12.7286 59.8674 13.4144L59.5467 13.5658C58.5581 14.0913 58.1217 15.2758 58.5314 16.3179C58.9678 17.4489 60.1524 18.0902 61.3369 17.8319V17.1194L61.4616 17.8141C66.4491 16.8879 71.6058 17.6627 76.1035 20.014C76.8427 20.4325 77.7422 20.4325 78.4814 20.014L78.5171 20.005Z" fill="#422B0D"/>
<defs>
<radialGradient id="paint0_radial_15_985" cx="0" cy="0" r="1" gradientUnits="userSpaceOnUse" gradientTransform="translate(52.3326 50.6246) scale(50.7298)">
<stop offset="0.5" stop-color="#FDE030"/>
<stop offset="0.92" stop-color="#F7C02B"/>
<stop offset="1" stop-color="#F4A223"/>
</radialGradient>
<linearGradient id="paint1_linear_15_985" x1="52.3326" y1="100.411" x2="52.3326" y2="0.838623" gradientUnits="userSpaceOnUse">
<stop stop-color="#F4A223"/>
<stop offset="0.08" stop-color="#F7C02B"/>
<stop offset="0.54" stop-color="#FDE030" stop-opacity="0"/>
</linearGradient>
<linearGradient id="paint2_linear_15_985" x1="26.8369" y1="89.3759" x2="26.6143" y2="59.6468" gradientUnits="userSpaceOnUse">
<stop stop-color="#BF360C"/>
<stop offset="1" stop-color="#BF360C" stop-opacity="0.2"/>
</linearGradient>
<radialGradient id="paint3_radial_15_985" cx="0" cy="0" r="1" gradientUnits="userSpaceOnUse" gradientTransform="translate(32.6053 68.8033) scale(52.7339 49.5699)">
<stop offset="0.27" stop-color="#FFF176"/>
<stop offset="1" stop-color="#FFC400"/>
</radialGradient>
<linearGradient id="paint4_linear_15_985" x1="30.6736" y1="78.8866" x2="53.1085" y2="67.7449" gradientUnits="userSpaceOnUse">
<stop offset="0.13" stop-color="#DA6727"/>
<stop offset="1" stop-color="#FFC400"/>
</linearGradient>
<linearGradient id="paint5_linear_15_985" x1="29.5141" y1="101.007" x2="29.7011" y2="67.1903" gradientUnits="userSpaceOnUse">
<stop offset="0.13" stop-color="#DA6727"/>
<stop offset="1" stop-color="#FFC400"/>
</linearGradient>
</defs>
</svg>
