<?xml version="1.0" encoding="utf-8"?>
<!-- Generator: Adobe Illustrator 27.0.0, SVG Export Plug-In . SVG Version: 6.00 Build 0)  -->
<svg version="1.1" id="Layer_1" xmlns="http://www.w3.org/2000/svg" xmlns:xlink="http://www.w3.org/1999/xlink" x="0px" y="0px"
	 viewBox="0 0 48 48" style="enable-background:new 0 0 48 48;" xml:space="preserve">
<style type="text/css">
	.st0{fill:none;}
	.st1{fill:#4285F4;}
	.st2{fill:#34A853;}
	.st3{fill:#EA4335;}
	.st4{fill:#F4B400;}
</style>
<g>
	<path class="st0" d="M26,21.5V9"/>
	<path class="st0" d="M22,9v12.5"/>
	<path class="st1" d="M24,26.8c1.4,0,2.6-0.5,3.6-1.5c1-1,1.5-2.3,1.5-3.8V9c0-1.4-0.5-2.6-1.5-3.5S25.4,4,24,4s-2.6,0.5-3.6,1.5
		S19,7.6,19,9v12.5c0,1.5,0.5,2.7,1.5,3.8C21.4,26.3,22.6,26.8,24,26.8z M22,21.5V9 M26,9v12.5"/>
	<rect x="22.5" y="35.2" class="st2" width="3" height="6.8"/>
	<path class="st3" d="M35,21.5c0,3-1.1,5.6-3.2,7.6c-2.2,2.1-4.7,3.1-7.8,3.1s-5.6-1-7.8-3.1l-2.6,1.6c2.4,2.6,5.4,4.1,8.9,4.4h3
		c3.5-0.4,6.5-1.8,8.9-4.4c2.4-2.6,3.6-5.7,3.6-9.2H35z"/>
	<path class="st4" d="M13,21.5h-3c0,3.5,1.2,6.6,3.6,9.2l2.6-1.6C14.1,27.1,13,24.6,13,21.5z"/>
</g>
</svg>
